<svg width="110" height="100" viewBox="0 0 110 100" fill="none" xmlns="http://www.w3.org/2000/svg">
<path d="M59.5 26.8375V40.7125V26.8375ZM95.2916 63.2083C98.3333 68.2917 95.9166 74.875 90.2916 76.75C70.3696 83.3749 48.8386 83.3749 28.9166 76.75C22.9166 74.75 20.625 68.6667 23.9166 63.2083L29.2083 54.375C30.6666 51.9583 31.8333 47.6667 31.8333 44.875V36.125C31.8278 32.4773 32.5416 28.8643 33.9337 25.4928C35.3258 22.1212 37.369 19.0571 39.9463 16.4759C42.5237 13.8946 45.5847 11.8468 48.9542 10.4497C52.3237 9.05249 55.9356 8.33334 59.5833 8.33334C74.8333 8.33334 87.3333 20.8333 87.3333 36.0833V44.8333C87.3333 45.5833 87.4166 46.4167 87.5416 47.2917" fill="#EFEAF5"/>
<path d="M73.375 78.4167C73.375 86.0417 67.125 92.2917 59.5 92.2917C55.7083 92.2917 52.2083 90.7083 49.7083 88.2083C47.2083 85.7083 45.625 82.2083 45.625 78.4167" fill="#EFEAF5"/>
<path d="M50.5 26.8375V40.7125M86.2916 63.2083C89.3333 68.2917 86.9166 74.875 81.2916 76.75C61.3696 83.3749 39.8386 83.3749 19.9166 76.75C13.9166 74.75 11.625 68.6667 14.9166 63.2083L20.2083 54.375C21.6666 51.9583 22.8333 47.6667 22.8333 44.875V36.125C22.8278 32.4773 23.5416 28.8643 24.9337 25.4928C26.3258 22.1212 28.369 19.0571 30.9463 16.4759C33.5237 13.8946 36.5847 11.8468 39.9542 10.4497C43.3237 9.05249 46.9356 8.33334 50.5833 8.33334C65.8333 8.33334 78.3333 20.8333 78.3333 36.0833V44.8333C78.3333 45.5833 78.4166 46.4167 78.5416 47.2917" stroke="#272727" stroke-width="1.5" stroke-miterlimit="10" stroke-linecap="round"/>
<path d="M64.375 78.4167C64.375 86.0417 58.125 92.2917 50.5 92.2917C46.7083 92.2917 43.2083 90.7083 40.7083 88.2083C38.2083 85.7083 36.625 82.2083 36.625 78.4167" stroke="#272727" stroke-width="1.5" stroke-miterlimit="10"/>
</svg>
