<svg width="110" height="103" viewBox="0 0 110 103" fill="none" xmlns="http://www.w3.org/2000/svg">
<path d="M94.9167 32.3333C94.9167 15.5417 91 11.3333 75.25 11.3333H43.75C28 11.3333 24.0834 15.5417 24.0834 32.3333V79.25C24.0834 90.3333 30.1667 92.9583 37.5417 85.0417L37.5834 85C41 81.375 46.2084 81.6667 49.1667 85.625L53.375 91.25C56.75 95.7083 62.2084 95.7083 65.5834 91.25L69.7917 85.625C72.7917 81.625 78 81.3333 81.4167 85C88.8334 92.9167 94.875 90.2917 94.875 79.2083V48.8333M42.8334 32.1667H76.1667H42.8334ZM47 48.8333H72H47Z" fill="#EFEAF5"/>
<path d="M85.9167 29.3333C85.9167 12.5417 82 8.33334 66.25 8.33334H34.75C19 8.33334 15.0834 12.5417 15.0834 29.3333V76.25C15.0834 87.3333 21.1667 89.9583 28.5417 82.0417L28.5834 82C32 78.375 37.2084 78.6667 40.1667 82.625L44.375 88.25C47.75 92.7083 53.2084 92.7083 56.5834 88.25L60.7917 82.625C63.7917 78.625 69 78.3333 72.4167 82C79.8334 89.9167 85.875 87.2917 85.875 76.2083V45.8333M33.8334 29.1667H67.1667M38 45.8333H63" stroke="#272727" stroke-width="1.5" stroke-linecap="round" stroke-linejoin="round"/>
</svg>
