<svg width="110" height="100" viewBox="0 0 110 100" fill="none" xmlns="http://www.w3.org/2000/svg">
<path d="M57.4167 8.33337C79.2917 8.33337 97 26.0417 97 47.9167C97 69.7917 79.2917 87.5 57.4167 87.5C35.5417 87.5 17.8334 69.7917 17.8334 47.9167C17.8334 32.5 26.625 19.1667 39.5 12.625M101.167 91.6667L92.8334 83.3334L101.167 91.6667Z" fill="#EFEAF5"/>
<path d="M48.4167 8.33337C70.2917 8.33337 88 26.0417 88 47.9167C88 69.7917 70.2917 87.5 48.4167 87.5C26.5417 87.5 8.83337 69.7917 8.83337 47.9167C8.83337 32.5 17.625 19.1667 30.5 12.625M92.1667 91.6667L83.8334 83.3334" stroke="#272727" stroke-width="1.5" stroke-linecap="round" stroke-linejoin="round"/>
</svg>
